<?xml version="1.0" encoding="utf-8"?>
<!-- Generator: Adobe Illustrator 27.9.0, SVG Export Plug-In . SVG Version: 6.00 Build 0)  -->
<svg version="1.1" id="Capa_1" xmlns="http://www.w3.org/2000/svg" xmlns:xlink="http://www.w3.org/1999/xlink" x="0px" y="0px"
	 viewBox="0 0 465.6 168.9" style="enable-background:new 0 0 465.6 168.9;" xml:space="preserve">
<g>
	<path d="M0.4,74.4v-0.6l22.3-72h22.4l22.3,72v0.6H52.7L34.6,12.9h-2.2L14,74.4H0.4z M17.9,55.6l3.2-11h24.8l3.2,11H17.9z"/>
	<path d="M76.6,74.4c-1.7-1.9-2.9-4.1-3.6-6.6c-0.7-2.5-1.1-5.8-1.1-10.1V0h13.8v56.3c0,4.8,0.5,8.5,1.6,11s2.4,4.8,4.1,6.6v0.6
		H76.6z"/>
	<path d="M101.2,74.4c-1.7-1.9-2.9-4.1-3.6-6.6c-0.7-2.5-1.1-5.8-1.1-10.1V0h13.8v56.3c0,4.8,0.5,8.5,1.6,11s2.4,4.8,4.1,6.6v0.6
		H101.2z"/>
	<path d="M149.7,74.4V1.9H164v72.6H149.7z"/>
	<path d="M208,41.3c0-4.1-0.7-7.2-2.2-9.4c-1.5-2.2-3.8-3.3-7-3.3c-3.8,0-6.8,1.5-8.9,4.5c-2.1,3-3.2,6.7-3.2,11.2v30.2H173V18.6
		h12.7V27h2.2c1-2.9,2.8-5.2,5.2-7c2.4-1.8,5.8-2.7,10.2-2.7c6.2,0,10.9,2,14,5.9c3.1,3.9,4.6,9.2,4.6,15.8v35.5H208V41.3"/>
	<path d="M0,167.5V94.9h25.2c12.7,0,22,3.2,27.8,9.5s8.7,15.3,8.7,26.7c0,11.5-2.9,20.4-8.7,26.8s-15,9.5-27.8,9.5H0z M14.3,156.2
		h10c5.1,0,9.4-0.8,12.7-2.4c3.3-1.6,5.8-4.2,7.5-7.9c1.6-3.6,2.5-8.5,2.5-14.8c0-6.2-0.8-11.1-2.5-14.8c-1.6-3.7-4.1-6.3-7.5-7.9
		c-3.3-1.6-7.6-2.4-12.7-2.4h-10V156.2z"/>
	<path d="M92.9,168.9c-8.6,0-15.1-2.7-19.7-8c-4.5-5.3-6.8-12.5-6.8-21.4c0-6,1-11.2,3-15.5c2-4.3,5-7.7,8.9-10.1
		c3.9-2.4,8.7-3.6,14.4-3.6c8.1,0,14.3,2.5,18.6,7.5c4.3,5,6.4,12.3,6.4,22v3.1H79.9c0.3,4.9,1.6,8.8,3.8,11.7
		c2.2,2.9,5.3,4.4,9.3,4.4c3,0,5.5-0.9,7.3-2.7c1.9-1.8,3.1-4,3.8-6.6h13.1c-0.6,3.5-1.9,6.7-3.8,9.6c-1.9,2.9-4.6,5.3-7.9,7
		C102.1,168,97.9,168.9,92.9,168.9z M79.9,133.9h24.6c-0.2-4.5-1.4-7.9-3.4-10.4c-2-2.5-4.8-3.7-8.4-3.7c-3.6,0-6.6,1.2-8.8,3.6
		C81.8,125.7,80.4,129.2,79.9,133.9z"/>
	<path d="M127.9,167.5v-46H120v-9.9h7.9v-3.4c0-3.1,0.5-5.8,1.6-8.1c1.1-2.3,2.9-4.1,5.5-5.3c2.6-1.3,6.1-1.9,10.5-1.9
		c1.7,0,3.4,0.1,4.9,0.3v9.7c-0.9-0.2-1.9-0.3-3.2-0.3c-2.3,0-3.8,0.5-4.7,1.5c-0.8,1-1.3,2.5-1.3,4.7v3h9.1v9.9h-9.1v46H127.9z"/>
	<path d="M179,168.9c-8.6,0-15.1-2.7-19.7-8c-4.5-5.3-6.8-12.5-6.8-21.4c0-6,1-11.2,3-15.5c2-4.3,5-7.7,8.9-10.1
		c3.9-2.4,8.7-3.6,14.4-3.6c8.1,0,14.3,2.5,18.6,7.5c4.3,5,6.4,12.3,6.4,22v3.1H166c0.3,4.9,1.6,8.8,3.8,11.7
		c2.2,2.9,5.3,4.4,9.3,4.4c3,0,5.5-0.9,7.3-2.7c1.9-1.8,3.1-4,3.8-6.6h13.1c-0.6,3.5-1.9,6.7-3.8,9.6c-1.9,2.9-4.6,5.3-7.9,7
		C188.2,168,184,168.9,179,168.9z M166,133.9h24.6c-0.2-4.5-1.4-7.9-3.4-10.4c-2-2.5-4.8-3.7-8.4-3.7c-3.6,0-6.6,1.2-8.8,3.6
		C167.9,125.7,166.5,129.2,166,133.9z"/>
	<path d="M210.5,167.5v-55.8h12.7v8.4h2.2c1-2.9,2.8-5.2,5.2-7c2.4-1.8,5.8-2.7,10.2-2.7c6.2,0,10.9,2,14,5.9
		c3.1,3.9,4.6,9.2,4.6,15.8v35.5h-13.8v-33.1c0-4.1-0.7-7.2-2.2-9.4c-1.5-2.2-3.8-3.3-7-3.3c-3.8,0-6.8,1.5-8.9,4.5
		c-2.1,3-3.2,6.7-3.2,11.2v30.2H210.5z"/>
	<path d="M288.6,168.7c-5,0-9.1-1.3-12.4-3.8c-3.3-2.5-5.7-6-7.4-10.3c-1.7-4.4-2.5-9.4-2.5-15.1c0-5.8,0.8-10.9,2.5-15.3
		c1.7-4.3,4.2-7.7,7.5-10.1c3.3-2.4,7.4-3.6,12.3-3.6c3.7,0,6.7,0.7,9,2c2.3,1.4,4.2,3.2,5.5,5.4h2.2V93.1H319v74.4h-12.6v-7.3h-2.2
		c-1.2,2.3-3.1,4.3-5.6,6C296,167.9,292.7,168.7,288.6,168.7z M292.2,158.7c4,0,7.2-1.7,9.6-5.2c2.3-3.5,3.5-8.1,3.5-13.9
		c0-5.8-1.2-10.5-3.5-13.9c-2.4-3.4-5.5-5.2-9.6-5.2c-3.6,0-6.5,1.6-8.6,4.8c-2.1,3.2-3.1,8-3.1,14.2c0,6.3,1,11,3.1,14.2
		C285.7,157,288.5,158.7,292.2,158.7z"/>
	<path d="M352.8,168.9c-8.6,0-15.1-2.7-19.7-8c-4.5-5.3-6.8-12.5-6.8-21.4c0-6,1-11.2,3-15.5c2-4.3,5-7.7,8.9-10.1
		c3.9-2.4,8.7-3.6,14.4-3.6c8.1,0,14.3,2.5,18.6,7.5c4.3,5,6.4,12.3,6.4,22v3.1h-37.9c0.3,4.9,1.6,8.8,3.8,11.7
		c2.2,2.9,5.3,4.4,9.3,4.4c3,0,5.5-0.9,7.3-2.7c1.9-1.8,3.1-4,3.8-6.6h13.1c-0.6,3.5-1.9,6.7-3.8,9.6c-1.9,2.9-4.6,5.3-7.9,7
		C362,168,357.8,168.9,352.8,168.9z M339.8,133.9h24.6c-0.2-4.5-1.4-7.9-3.4-10.4c-2-2.5-4.8-3.7-8.4-3.7c-3.6,0-6.6,1.2-8.8,3.6
		C341.7,125.7,340.3,129.2,339.8,133.9z"/>
	<path d="M385.1,167.5v-55.8h12.5v10.1h2.2c0.4-1.8,1-3.5,2-5.1c1-1.6,2.5-2.9,4.6-4c2.1-1,4.9-1.5,8.5-1.5h2.7v12.6h-3.8
		c-5.3,0-9.1,1.4-11.5,4.1c-2.4,2.7-3.5,6.9-3.5,12.4v27.4H385.1z"/>
	<path d="M443.3,168.9c-5.9,0-10.7-1-14.3-2.9c-3.6-1.9-6.2-4.4-7.9-7.4c-1.7-3-2.6-6-2.8-9h13.2c0.2,1.7,0.9,3.2,1.9,4.7
		c1,1.4,2.4,2.6,4.2,3.4c1.8,0.8,3.9,1.3,6.4,1.3c3,0,5.3-0.6,6.7-1.7c1.4-1.1,2.1-2.5,2.1-4.3c0-1.6-0.6-3-1.9-4.1
		c-1.2-1.1-3.2-2.1-6-3.1l-6.7-2.2c-3.2-1.1-6-2.3-8.7-3.7c-2.6-1.3-4.7-3.1-6.3-5.2c-1.6-2.1-2.4-4.8-2.4-8.1
		c0-4.9,1.8-8.9,5.5-11.9c3.7-3,8.9-4.5,15.5-4.5c4.8,0,8.8,0.8,11.9,2.3c3.1,1.5,5.4,3.6,7,6.1c1.6,2.6,2.5,5.4,2.7,8.6h-12.7
		c-0.3-2.3-1.2-4.1-2.8-5.5c-1.5-1.4-3.8-2-6.7-2c-2.5,0-4.5,0.5-5.8,1.5c-1.3,1-1.9,2.4-1.9,4.1c0,1.7,0.7,3.2,2,4.3
		c1.4,1.1,3.4,2.1,6.1,3.1l6.7,2.2c3.2,1,6,2.2,8.6,3.5c2.6,1.3,4.7,3.1,6.2,5.2c1.5,2.1,2.3,4.8,2.3,8.2c0,5.1-1.9,9.2-5.8,12.3
		C456,167.3,450.5,168.9,443.3,168.9z"/>
</g>
</svg>
