<?xml version="1.0" encoding="utf-8"?>
<!-- Generator: Adobe Illustrator 27.9.0, SVG Export Plug-In . SVG Version: 6.00 Build 0)  -->
<svg version="1.1" id="Capa_1" xmlns="http://www.w3.org/2000/svg" xmlns:xlink="http://www.w3.org/1999/xlink" x="0px" y="0px"
	 viewBox="0 0 316.7 134.9" style="enable-background:new 0 0 316.7 134.9;" xml:space="preserve">
<g>
	<path d="M8.7,26.4l12.5,0l2.5,8.5l6.7,0l0-0.3L20.1,2.1L10,2.1L0,34.7L0,35l6.1,0L8.7,26.4z M15.4,7.1l4.3,14.3l-9.5,0l4.2-14.3
		L15.4,7.1z"/>
	<path d="M34.1,31.9c0.3,1.1,0.9,2.1,1.6,3l6.7,0l0-0.3c-0.8-0.8-1.4-1.8-1.9-3c-0.5-1.2-0.7-2.8-0.7-5L39.8,1.2l-6.3,0l0.1,26.2
		C33.6,29.2,33.8,30.8,34.1,31.9z"/>
	<path d="M49.6,6.5c1.1,0,2-0.3,2.6-0.9c0.6-0.6,0.9-1.4,0.9-2.3c0-1-0.3-1.8-0.9-2.4C51.6,0.3,50.7,0,49.6,0c-1.1,0-2,0.3-2.6,0.9
		c-0.6,0.6-0.9,1.4-0.9,2.4c0,1,0.3,1.7,0.9,2.3C47.6,6.2,48.5,6.5,49.6,6.5z"/>
	<rect x="46.5" y="9.6" transform="matrix(1 -2.645752e-03 2.645752e-03 1 -5.855178e-02 0.1315)" width="6.3" height="25.3"/>
	<path d="M62.3,33.6c1.5,1.1,3.4,1.7,5.7,1.7c1.8,0,3.3-0.4,4.4-1.1c1.1-0.8,2-1.7,2.5-2.7l1,0l0,3.3l5.8,0L81.6,9.5l-5.8,0l0,3.3
		l-1,0c-0.6-1.1-1.4-2-2.5-2.8C71.2,9.3,69.7,9,67.9,9c-2.3,0-4.2,0.6-5.7,1.7c-1.5,1.1-2.6,2.6-3.4,4.6c-0.8,2-1.1,4.3-1.1,6.9
		c0,2.6,0.4,4.9,1.1,6.8C59.6,31,60.8,32.5,62.3,33.6z M65.6,15.7c0.9-1.5,2.2-2.2,3.9-2.2c1.8,0,3.2,0.8,4.3,2.3
		c1.1,1.6,1.6,3.7,1.6,6.3c0,2.6-0.5,4.7-1.6,6.3c-1.1,1.6-2.5,2.4-4.3,2.4c-1.7,0-3-0.7-3.9-2.2c-0.9-1.5-1.4-3.6-1.4-6.4
		S64.6,17.2,65.6,15.7z"/>
	<path d="M94.3,34.7l0-13.6c0-2,0.5-3.7,1.4-5.1c0.9-1.4,2.3-2,4-2.1c1.5,0,2.5,0.5,3.2,1.5c0.7,1,1,2.4,1,4.3l0,15l6.3,0l0-16.1
		c0-3-0.7-5.4-2.1-7.1c-1.4-1.8-3.5-2.7-6.3-2.7c-2,0-3.5,0.4-4.6,1.3c-1.1,0.8-1.9,1.9-2.3,3.2l-1,0l0-3.8l-5.7,0L88,34.7
		L94.3,34.7z"/>
	<path d="M124.3,35.1l-3.9,6.9l0,0.2l5.9,0l2.6-7.1c2.2-0.3,4-1.2,5.4-2.5c1.9-1.8,3-4.2,3.4-7.2l-6.1,0c-0.2,1.7-0.7,3-1.5,3.9
		c-0.8,0.9-1.9,1.4-3.3,1.4c-1.8,0-3.1-0.8-4-2.3c-0.9-1.5-1.4-3.7-1.4-6.4c0-2.8,0.4-4.9,1.4-6.5c0.9-1.5,2.3-2.3,4-2.3
		c1.3,0,2.4,0.5,3.3,1.4c0.8,0.9,1.4,2.2,1.6,3.9l6.1,0c-0.4-3-1.5-5.4-3.4-7.2c-1.9-1.7-4.4-2.6-7.7-2.6c-3.7,0-6.5,1.2-8.6,3.5
		c-2.1,2.3-3.1,5.6-3.1,9.8c0,4,1,7.3,3,9.7C119.4,33.6,121.6,34.7,124.3,35.1z"/>
	<path d="M145.6,33.4c1.5,1.1,3.4,1.7,5.7,1.7c1.8,0,3.3-0.4,4.4-1.1c1.1-0.8,2-1.7,2.5-2.7l1,0l0,3.3l5.8,0l-0.1-25.3l-5.8,0l0,3.3
		l-1,0c-0.6-1.1-1.4-2-2.5-2.8c-1.1-0.7-2.6-1.1-4.4-1.1c-2.3,0-4.2,0.6-5.7,1.7c-1.5,1.1-2.6,2.6-3.4,4.6c-0.8,2-1.1,4.3-1.1,6.9
		c0,2.6,0.4,4.9,1.1,6.8C142.9,30.8,144,32.3,145.6,33.4z M148.8,15.5c0.9-1.5,2.2-2.2,3.9-2.2c1.8,0,3.2,0.8,4.3,2.3
		c1.1,1.6,1.6,3.7,1.6,6.3c0,2.6-0.5,4.7-1.6,6.3c-1.1,1.6-2.5,2.4-4.3,2.4c-1.7,0-3-0.7-3.9-2.2c-0.9-1.5-1.4-3.6-1.4-6.4
		C147.5,19.1,147.9,17,148.8,15.5z"/>
	<rect x="3.1" y="51.8" transform="matrix(1 -2.852139e-03 2.852139e-03 1 -0.1945 1.822497e-02)" width="6.5" height="32.9"/>
	<path d="M30.9,65.3c0.7,1,1,2.4,1,4.3l0,15l6.3,0l0-16.1c0-3-0.7-5.4-2.1-7.1c-1.4-1.8-3.5-2.7-6.3-2.7c-2,0-3.5,0.4-4.6,1.3
		c-1.1,0.8-1.9,1.9-2.3,3.2l-1,0l0-3.8l-5.7,0L16,84.6l6.3,0l0-13.6c0-2,0.5-3.7,1.4-5.1c0.9-1.4,2.3-2,4-2.1
		C29.2,63.8,30.2,64.3,30.9,65.3z"/>
	<path d="M55.7,59.2l-4.2,0l0-6.3l-6.1,0l0,6.3l-3.5,0l0,4.5l3.4,0l0,13.3c0,2.1,0.2,3.7,0.6,4.8c0.4,1.1,0.9,2,1.5,2.7l6.7,0l0-0.3
		c-0.7-0.8-1.3-1.7-1.8-2.9c-0.5-1.2-0.8-2.9-0.8-5.1l0-12.6l4.1,0L55.7,59.2z"/>
	<path d="M76,83.9c1.5-0.8,2.7-1.9,3.6-3.2c0.9-1.3,1.4-2.8,1.7-4.3l-5.9,0c-0.3,1.2-0.9,2.2-1.7,3c-0.8,0.8-1.9,1.2-3.3,1.2
		c-1.8,0-3.2-0.7-4.2-2c-1-1.3-1.6-3.1-1.7-5.3l17.2,0l0-1.4c0-4.4-1-7.7-2.9-10c-2-2.3-4.8-3.4-8.4-3.4c-2.6,0-4.7,0.6-6.5,1.6
		c-1.8,1.1-3.1,2.6-4,4.6c-0.9,2-1.4,4.3-1.3,7c0,4.1,1,7.3,3.1,9.7c2,2.4,5,3.6,8.9,3.6C72.6,85.1,74.5,84.7,76,83.9z M66.2,64.5
		c1-1.1,2.3-1.6,4-1.6c1.6,0,2.9,0.6,3.8,1.7c0.9,1.1,1.4,2.7,1.5,4.7l-11.1,0C64.6,67.2,65.2,65.6,66.2,64.5z"/>
	<path d="M101.3,58.9l-1.2,0c-1.6,0-2.9,0.2-3.9,0.7c-1,0.5-1.6,1.1-2.1,1.8c-0.4,0.7-0.8,1.5-0.9,2.3l-1,0l0-4.5l-5.7,0l0.1,25.3
		l6.3,0l0-12.4c0-2.5,0.5-4.4,1.6-5.6c1.1-1.2,2.8-1.9,5.2-1.9l1.7,0L101.3,58.9z"/>
	<path d="M105.6,84.4l6.3,0l0-13.6c0-2,0.5-3.7,1.4-5.1c0.9-1.4,2.3-2,4-2.1c1.5,0,2.5,0.5,3.2,1.5c0.7,1,1,2.4,1,4.3l0,15l6.3,0
		l0-16.1c0-3-0.7-5.4-2.1-7.1c-1.4-1.8-3.5-2.7-6.3-2.7c-2,0-3.5,0.4-4.6,1.3c-1.1,0.8-1.9,1.9-2.3,3.2l-1,0l0-3.8l-5.8,0
		L105.6,84.4z"/>
	<path d="M149.6,81l1,0l0,3.3l5.7,0L156.3,59l-5.7,0l0,3.3l-1,0c-0.6-1.1-1.4-2-2.5-2.8c-1.1-0.7-2.6-1.1-4.4-1.1
		c-2.3,0-4.2,0.6-5.7,1.7c-1.5,1.1-2.6,2.6-3.4,4.6c-0.8,2-1.1,4.3-1.1,6.9c0,2.6,0.4,4.9,1.1,6.8c0.7,2,1.9,3.5,3.4,4.7
		s3.4,1.7,5.7,1.7c1.8,0,3.3-0.4,4.4-1.1C148.2,82.9,149.1,82,149.6,81z M140.3,78.1c-0.9-1.5-1.4-3.6-1.4-6.4c0-2.8,0.5-5,1.4-6.4
		c0.9-1.5,2.2-2.2,3.9-2.2c1.8,0,3.2,0.8,4.3,2.3c1.1,1.6,1.6,3.7,1.6,6.3c0,2.6-0.5,4.7-1.6,6.3c-1.1,1.6-2.5,2.4-4.3,2.4
		C142.6,80.3,141.2,79.6,140.3,78.1z"/>
	<path d="M161.3,71.6c0,4,1,7.3,3,9.7c2,2.4,4.9,3.6,8.7,3.6c3.2,0,5.8-0.9,7.7-2.7c1.9-1.8,3-4.2,3.4-7.2l-6.1,0
		c-0.2,1.7-0.7,3-1.5,3.9c-0.8,0.9-1.9,1.4-3.3,1.4c-1.8,0-3.1-0.8-4-2.3c-0.9-1.5-1.4-3.7-1.4-6.4c0-2.8,0.4-4.9,1.4-6.5
		c0.9-1.5,2.3-2.3,4-2.3c1.3,0,2.4,0.5,3.3,1.4c0.8,0.9,1.4,2.2,1.6,3.9l6.1,0c-0.4-3-1.5-5.4-3.4-7.2c-1.9-1.7-4.4-2.6-7.7-2.6
		c-3.7,0-6.5,1.2-8.6,3.5C162.3,64.1,161.3,67.4,161.3,71.6z"/>
	<rect x="188.9" y="58.9" transform="matrix(1 -2.398654e-03 2.398654e-03 1 -0.1711 0.4607)" width="6.3" height="25.3"/>
	<path d="M191.9,49.4c-1.1,0-2,0.3-2.6,0.9c-0.6,0.6-0.9,1.4-0.9,2.4c0,1,0.3,1.7,0.9,2.3c0.6,0.6,1.4,0.9,2.6,0.9
		c1.1,0,2-0.3,2.6-0.9c0.6-0.6,0.9-1.4,0.9-2.3c0-1-0.3-1.8-0.9-2.4C193.9,49.6,193,49.4,191.9,49.4z"/>
	<path d="M221.3,61.8c-2-2.4-5.1-3.6-9.2-3.6c-4.1,0-7.1,1.2-9.1,3.6c-2,2.4-3,5.6-3,9.7c0,4,1,7.3,3,9.7c2,2.4,5,3.6,9.1,3.6
		c4.1,0,7.1-1.2,9.1-3.6c2-2.4,3-5.6,3-9.7C224.3,67.4,223.3,64.2,221.3,61.8z M216.5,78.1c-0.9,1.5-2.4,2.3-4.3,2.3
		c-2,0-3.4-0.8-4.3-2.3c-0.9-1.5-1.4-3.7-1.4-6.6c0-2.9,0.4-5.1,1.4-6.7c0.9-1.5,2.4-2.3,4.3-2.3c2,0,3.4,0.7,4.3,2.3
		c0.9,1.5,1.4,3.7,1.4,6.6C217.9,74.4,217.5,76.6,216.5,78.1z"/>
	<path d="M235.6,84.1l0-13.6c0-2,0.5-3.7,1.4-5.1c0.9-1.4,2.3-2,4-2.1c1.5,0,2.5,0.5,3.2,1.5c0.7,1,1,2.4,1,4.3l0,15l6.3,0l0-16.1
		c0-3-0.7-5.4-2.1-7.1c-1.4-1.8-3.5-2.7-6.3-2.7c-2,0-3.5,0.4-4.6,1.3c-1.1,0.8-1.9,1.9-2.3,3.2l-1,0l0-3.8l-5.8,0l0.1,25.3
		L235.6,84.1z"/>
	<path d="M273.4,80.7l1,0l0,3.3l5.7,0l-0.1-25.3l-5.7,0l0,3.3l-1,0c-0.6-1.1-1.4-2-2.5-2.8c-1.1-0.7-2.6-1.1-4.4-1.1
		c-2.3,0-4.2,0.6-5.7,1.7c-1.5,1.1-2.6,2.6-3.4,4.6c-0.8,2-1.1,4.3-1.1,6.9c0,2.6,0.4,4.9,1.1,6.8c0.7,2,1.9,3.5,3.4,4.7
		s3.4,1.7,5.7,1.7c1.8,0,3.3-0.4,4.4-1.1C272,82.6,272.8,81.7,273.4,80.7z M264.1,77.8c-0.9-1.5-1.4-3.6-1.4-6.4
		c0-2.8,0.5-5,1.4-6.4c0.9-1.5,2.2-2.2,3.9-2.2c1.8,0,3.2,0.8,4.3,2.3c1.1,1.6,1.6,3.7,1.6,6.3c0,2.6-0.5,4.7-1.6,6.3
		c-1.1,1.6-2.5,2.4-4.3,2.4C266.3,80,265,79.3,264.1,77.8z"/>
	<path d="M293.4,80.7c-0.5-1.2-0.7-2.8-0.7-5l-0.1-25.5l-6.3,0l0.1,26.2c0,1.9,0.2,3.4,0.5,4.5c0.3,1.1,0.9,2.1,1.6,3l6.7,0l0-0.3
		C294.5,82.9,293.8,81.9,293.4,80.7z"/>
	<path d="M18.9,100.6l0,11.2l-1,0c-0.6-1-1.5-1.8-2.5-2.4c-1.1-0.6-2.4-0.9-4.1-0.9c-2.2,0-4.1,0.6-5.6,1.7
		c-1.5,1.1-2.6,2.6-3.4,4.6c-0.8,2-1.1,4.3-1.1,6.9c0,2.6,0.4,4.9,1.2,6.8c0.8,2,1.9,3.5,3.4,4.7c1.5,1.1,3.4,1.7,5.6,1.7
		c1.9,0,3.4-0.4,4.5-1.1c1.1-0.8,2-1.7,2.5-2.7l1,0l0,3.3l5.7,0l-0.1-33.7L18.9,100.6z M17.4,127.9c-1.1,1.6-2.5,2.4-4.3,2.4
		c-1.7,0-2.9-0.7-3.9-2.2c-0.9-1.5-1.4-3.6-1.4-6.4c0-2.8,0.5-5,1.4-6.4c0.9-1.5,2.2-2.2,3.9-2.2c1.8,0,3.3,0.8,4.3,2.3
		c1.1,1.6,1.6,3.7,1.6,6.3C19,124.3,18.4,126.4,17.4,127.9z"/>
	<path d="M53.4,121.7c0-4.4-1-7.7-2.9-10c-1.9-2.3-4.8-3.4-8.4-3.4c-2.6,0-4.7,0.6-6.5,1.6c-1.8,1.1-3.1,2.6-4,4.6
		c-0.9,2-1.4,4.3-1.3,7c0,4.1,1,7.3,3.1,9.7c2,2.4,5,3.6,8.9,3.6c2.3,0,4.2-0.4,5.7-1.2c1.5-0.8,2.7-1.9,3.6-3.2
		c0.9-1.3,1.4-2.8,1.7-4.3l-5.9,0c-0.3,1.2-0.9,2.2-1.7,3c-0.8,0.8-1.9,1.2-3.3,1.2c-1.8,0-3.2-0.7-4.2-2c-1-1.3-1.6-3.1-1.7-5.3
		l17.2,0L53.4,121.7z M36.2,119.1c0.2-2.1,0.8-3.7,1.8-4.8c1-1.1,2.3-1.6,4-1.6c1.6,0,2.9,0.6,3.8,1.7c0.9,1.1,1.4,2.7,1.5,4.7
		L36.2,119.1z"/>
	<path d="M80.6,101.3l-11.4,0l0.1,32.8l11.4,0c5.8,0,9.9-1.5,12.6-4.3c2.6-2.9,3.9-6.9,3.9-12.1c0-5.2-1.3-9.2-4-12.1
		C90.6,102.7,86.4,101.3,80.6,101.3z M89.4,124.4c-0.7,1.6-1.9,2.8-3.4,3.6c-1.5,0.7-3.4,1.1-5.7,1.1l-4.5,0l-0.1-22.7l4.5,0
		c2.3,0,4.2,0.3,5.8,1.1c1.5,0.7,2.6,1.9,3.4,3.5c0.7,1.7,1.1,3.9,1.1,6.7C90.5,120.5,90.1,122.7,89.4,124.4z"/>
	<path d="M123.9,121.5c0-4.4-1-7.7-2.9-10c-1.9-2.3-4.8-3.4-8.4-3.4c-2.6,0-4.7,0.6-6.5,1.6c-1.8,1.1-3.1,2.6-4,4.6
		c-0.9,2-1.4,4.3-1.3,7c0,4.1,1,7.3,3.1,9.7c2,2.4,5,3.6,8.9,3.6c2.3,0,4.2-0.4,5.7-1.2c1.5-0.8,2.7-1.9,3.6-3.2
		c0.9-1.3,1.4-2.8,1.7-4.3l-5.9,0c-0.3,1.2-0.9,2.2-1.7,3c-0.8,0.8-1.9,1.2-3.3,1.2c-1.8,0-3.2-0.7-4.2-2c-1-1.3-1.6-3.1-1.7-5.3
		l17.2,0L123.9,121.5z M106.7,118.9c0.2-2.1,0.8-3.7,1.8-4.8c1-1.1,2.3-1.6,4-1.6c1.6,0,2.9,0.6,3.8,1.7c0.9,1.1,1.4,2.7,1.5,4.7
		L106.7,118.9z"/>
	<path d="M140.3,108.7l-4.1,0l0-1.3c0-1,0.2-1.7,0.6-2.1c0.4-0.5,1.1-0.7,2.1-0.7c0.6,0,1,0,1.4,0.1l0-4.4c-0.7-0.1-1.4-0.1-2.2-0.1
		c-2,0-3.6,0.3-4.7,0.9c-1.2,0.6-2,1.4-2.5,2.4c-0.5,1-0.7,2.3-0.7,3.7l0,1.6l-3.6,0l0,4.5l3.6,0l0.1,20.8l6.1,0l-0.1-20.8l4.1,0
		L140.3,108.7z"/>
	<path d="M166.2,121.4c0-4.4-1-7.7-2.9-10c-1.9-2.3-4.8-3.4-8.4-3.4c-2.6,0-4.7,0.6-6.5,1.6c-1.8,1.1-3.1,2.6-4,4.6
		c-0.9,2-1.4,4.3-1.3,7c0,4.1,1,7.3,3.1,9.7c2,2.4,5,3.6,8.9,3.6c2.3,0,4.2-0.4,5.7-1.2c1.5-0.8,2.7-1.9,3.6-3.2
		c0.9-1.3,1.4-2.8,1.7-4.3l-5.9,0c-0.3,1.2-0.9,2.2-1.7,3c-0.8,0.8-1.9,1.2-3.3,1.2c-1.8,0-3.2-0.7-4.2-2c-1-1.3-1.6-3.1-1.7-5.3
		l17.2,0L166.2,121.4z M149,118.8c0.2-2.1,0.8-3.7,1.8-4.8c1-1.1,2.3-1.6,4-1.6c1.6,0,2.9,0.6,3.8,1.7c0.9,1.1,1.4,2.7,1.5,4.7
		L149,118.8z"/>
	<path d="M191.1,110.7c-1.4-1.8-3.5-2.7-6.3-2.7c-2,0-3.5,0.4-4.6,1.3c-1.1,0.8-1.9,1.9-2.3,3.2l-1,0l0-3.8l-5.8,0l0.1,25.3l6.3,0
		l0-13.6c0-2,0.5-3.7,1.4-5.1c0.9-1.4,2.3-2,4-2.1c1.5,0,2.5,0.5,3.2,1.5c0.7,1,1,2.4,1,4.3l0,15l6.3,0l0-16.1
		C193.2,114.8,192.5,112.4,191.1,110.7z"/>
	<path d="M215,120.7c-1.2-0.6-2.5-1.1-3.9-1.6l-3-1c-1.2-0.4-2.2-0.9-2.8-1.4c-0.6-0.5-0.9-1.1-0.9-1.9c0-0.8,0.3-1.4,0.9-1.9
		c0.6-0.5,1.5-0.7,2.6-0.7c1.3,0,2.3,0.3,3,0.9c0.7,0.6,1.1,1.4,1.3,2.5l5.7,0c-0.1-1.4-0.5-2.7-1.2-3.9c-0.7-1.2-1.8-2.1-3.2-2.8
		c-1.4-0.7-3.2-1-5.4-1c-3,0-5.4,0.7-7,2.1c-1.7,1.4-2.5,3.2-2.5,5.4c0,1.5,0.4,2.7,1.1,3.7c0.7,1,1.7,1.7,2.9,2.3
		c1.2,0.6,2.5,1.1,3.9,1.7l3,1c1.3,0.4,2.2,0.9,2.7,1.4c0.6,0.5,0.8,1.1,0.8,1.9c0,0.8-0.3,1.4-1,1.9c-0.6,0.5-1.6,0.8-3,0.8
		c-1.1,0-2.1-0.2-2.9-0.6c-0.8-0.4-1.4-0.9-1.9-1.5c-0.5-0.6-0.8-1.3-0.9-2.1l-6,0c0.1,1.4,0.5,2.7,1.3,4.1c0.8,1.3,2,2.5,3.6,3.3
		c1.6,0.9,3.8,1.3,6.5,1.3c3.3,0,5.8-0.7,7.5-2.1c1.7-1.4,2.6-3.3,2.6-5.6c0-1.5-0.4-2.7-1.1-3.7C217.1,122.1,216.2,121.3,215,120.7
		z"/>
	<path d="M234.2,107.9c-4.1,0-7.1,1.2-9.1,3.6c-2,2.4-3,5.6-3,9.7c0,4,1,7.3,3,9.7c2,2.4,5.1,3.6,9.1,3.6c4.1,0,7.1-1.2,9.1-3.6
		c2-2.4,3-5.6,3-9.7c0-4-1-7.3-3-9.7C241.3,109.1,238.3,107.9,234.2,107.9z M238.6,127.8c-0.9,1.5-2.4,2.3-4.3,2.3
		c-2,0-3.4-0.8-4.3-2.3c-0.9-1.5-1.4-3.7-1.4-6.6c0-2.9,0.4-5.1,1.4-6.7c0.9-1.5,2.4-2.3,4.3-2.3c2,0,3.4,0.7,4.3,2.3
		c0.9,1.5,1.4,3.7,1.4,6.7C239.9,124,239.5,126.2,238.6,127.8z"/>
	<path d="M264.8,108.2c-1.6,0-2.9,0.2-3.9,0.7c-1,0.5-1.6,1.1-2.1,1.8c-0.4,0.7-0.7,1.5-0.9,2.3l-1,0l0-4.5l-5.7,0l0.1,25.3l6.3,0
		l0-12.4c0-2.5,0.5-4.4,1.6-5.6c1.1-1.2,2.8-1.9,5.2-1.9l1.7,0l0-5.7L264.8,108.2z"/>
	<path d="M292.2,121.1c0-4.4-1-7.7-2.9-10c-1.9-2.3-4.8-3.4-8.4-3.4c-2.6,0-4.7,0.6-6.5,1.6c-1.8,1.1-3.1,2.6-4,4.6
		c-0.9,2-1.4,4.3-1.3,7c0,4.1,1,7.3,3.1,9.7c2,2.4,5,3.6,8.9,3.6c2.3,0,4.2-0.4,5.7-1.2c1.5-0.8,2.7-1.9,3.6-3.2
		c0.9-1.3,1.4-2.8,1.7-4.3l-5.9,0c-0.3,1.2-0.9,2.2-1.7,3c-0.8,0.8-1.9,1.2-3.3,1.2c-1.8,0-3.2-0.7-4.2-2c-1-1.3-1.6-3.1-1.7-5.3
		l17.2,0L292.2,121.1z M275,118.5c0.2-2.1,0.8-3.7,1.8-4.8c1-1.1,2.3-1.6,4-1.6c1.6,0,2.9,0.6,3.8,1.7c0.9,1.1,1.4,2.7,1.5,4.7
		L275,118.5z"/>
	<path d="M315.6,122.8c-0.7-1-1.6-1.7-2.8-2.3c-1.2-0.6-2.5-1.1-3.9-1.6l-3-1c-1.2-0.4-2.2-0.9-2.8-1.4c-0.6-0.5-0.9-1.1-0.9-1.9
		c0-0.8,0.3-1.4,0.9-1.9s1.5-0.7,2.6-0.7c1.3,0,2.3,0.3,3,0.9c0.7,0.6,1.1,1.4,1.3,2.5l5.8,0c-0.1-1.4-0.5-2.7-1.3-3.9
		c-0.7-1.2-1.8-2.1-3.2-2.8c-1.4-0.7-3.2-1-5.4-1c-3,0-5.4,0.7-7,2.1c-1.7,1.4-2.5,3.2-2.5,5.4c0,1.5,0.4,2.7,1.1,3.7
		c0.7,1,1.7,1.7,2.9,2.3c1.2,0.6,2.5,1.2,3.9,1.7l3,1c1.3,0.4,2.2,0.9,2.7,1.4c0.6,0.5,0.8,1.1,0.8,1.9c0,0.8-0.3,1.4-1,1.9
		c-0.6,0.5-1.7,0.8-3,0.8c-1.1,0-2.1-0.2-2.9-0.6c-0.8-0.4-1.4-0.9-1.9-1.5c-0.5-0.6-0.8-1.3-0.9-2.1l-6,0c0.1,1.4,0.5,2.7,1.3,4.1
		c0.8,1.3,2,2.5,3.6,3.3s3.8,1.3,6.5,1.3c3.3,0,5.8-0.7,7.5-2.1c1.7-1.4,2.6-3.3,2.6-5.6C316.7,125,316.4,123.8,315.6,122.8z"/>
</g>
</svg>
